<?xml version="1.0" encoding="UTF-8"?><svg xmlns="http://www.w3.org/2000/svg" viewBox="0 0 130 180"><defs><style>.cls-1{fill:#221800;}.cls-2{fill:#cecece;}.cls-3{fill:none;stroke:#636363;stroke-linecap:round;stroke-miterlimit:10;stroke-width:1.64px;}.cls-4{isolation:isolate;}.cls-5{fill:#636363;}.cls-6{fill:#564f4e;mix-blend-mode:multiply;}.cls-7{fill:#c1bfbc;}.cls-8{fill:#e8e8e8;}</style></defs><g class="cls-4"><g id="OBJECTS"><path class="cls-2" d="M118.35,106.67c0,23.21-23.88,32.27-53.35,32.27s-53.35-9.05-53.35-32.27,23.88-51.8,53.35-51.8,53.35,28.58,53.35,51.8Z"/><path class="cls-6" d="M99.09,110.33c0,2.54-2.06,4.6-4.6,4.6s-4.6-2.06-4.6-4.6,2.06-4.6,4.6-4.6,4.6,2.06,4.6,4.6Z"/><path class="cls-6" d="M41.72,110.33c0,2.54-2.06,4.6-4.6,4.6s-4.6-2.06-4.6-4.6,2.06-4.6,4.6-4.6,4.6,2.06,4.6,4.6Z"/><path class="cls-8" d="M82.73,117.09c0,6.97-7.65,9.57-17.08,9.57s-17.08-2.59-17.08-9.57,7.65-15.69,17.08-15.69,17.08,8.72,17.08,15.69Z"/><path class="cls-3" d="M66.02,110.62v5.45s-1.33,3.28-6.76,2.36c-2.93-.5-3.48-3.17-3.48-3.17"/><path class="cls-3" d="M66.02,110.62v5.45s1.33,3.28,6.76,2.36c2.93-.5,3.48-3.17,3.48-3.17"/><path class="cls-1" d="M72.07,108.5c0,1.96-2.75,3.55-6.14,3.55s-6.14-1.59-6.14-3.55,2.75-3.55,6.14-3.55,6.14,1.59,6.14,3.55Z"/><path class="cls-2" d="M59.33,180h0c-2.28,0-4.1-1.91-3.99-4.19l.85-11.19h6.27l.85,11.19c.11,2.28-1.71,4.19-3.99,4.19Z"/><path class="cls-2" d="M73.48,180h0c2.28,0,4.1-1.91,3.99-4.19l-.85-11.19h-6.27l-.85,11.19c-.11,2.28,1.71,4.19,3.99,4.19Z"/><path class="cls-7" d="M90.34,164.14h0c-2.57,1.21-5.63.02-6.71-2.61l-4.96-13.06,7.07-3.32,6.89,12.16c1.33,2.51.3,5.63-2.28,6.83Z"/><path class="cls-7" d="M42.74,164.14h0c2.57,1.21,5.63.02,6.71-2.61l4.96-13.06-7.07-3.32-6.89,12.16c-1.33,2.51-.29,5.63,2.28,6.83Z"/><path class="cls-2" d="M88.22,154.11c0,9.46-9.74,13.16-21.75,13.16s-21.75-3.69-21.75-13.16,9.74-21.12,21.75-21.12,21.75,11.65,21.75,21.12Z"/><path class="cls-8" d="M77.26,156.16c0,5.17-4.97,6.39-10.95,6.39s-10.71-1.22-10.71-6.39,4.73-12.34,10.71-12.34,10.95,7.17,10.95,12.34Z"/><path class="cls-2" d="M78.4,59.19s1.56-25.72,16.37-25.13c.46.02.92.05,1.36.08,10.72.88,19.12,9.63,20.06,20.34.55,6.28.42,13.35-2.91,13.67-6.04.58-6.23-1.75-6.23-1.75l-1.56,17.54s-11.3-17.34-27.08-24.74Z"/><path class="cls-5" d="M105.57,64.16l-13.33-11-2.17,7.67s3.83,9.83,9.33,11.5c5.5,1.67,6.17-8.17,6.17-8.17Z"/><path class="cls-2" d="M51.73,59.19s-1.56-25.72-16.37-25.13c-.46.02-.92.05-1.36.08-10.72.88-19.12,9.63-20.06,20.34-.55,6.28-.42,13.35,2.91,13.67,6.04.58,6.23-1.75,6.23-1.75l1.56,17.54s11.3-17.34,27.08-24.74Z"/><path class="cls-5" d="M24.57,64.16l13.33-11,2.17,7.67s-3.83,9.83-9.33,11.5c-5.5,1.67-6.17-8.17-6.17-8.17Z"/></g></g></svg>